<svg width="373" height="143" viewBox="0 0 373 143" fill="none" xmlns="http://www.w3.org/2000/svg">
<path fill-rule="evenodd" clip-rule="evenodd" d="M36.0784 50.4312V92.443C54.0231 90.255 62.066 91.7215 71.8176 100.466V57.8707C65.2494 50.9763 57.4785 49.32 36.0784 50.4312Z" fill="#22D39E"/>
<path fill-rule="evenodd" clip-rule="evenodd" d="M36.0784 50.4312V92.443C54.0231 90.255 62.066 91.7215 71.8176 100.466V57.8707C65.2494 50.9763 57.4785 49.32 36.0784 50.4312Z" fill="url(#paint0_angular)"/>
<path d="M71.8176 57.8707V100.466C81.5692 91.7215 89.6121 90.255 107.557 92.443V50.4312C86.1567 49.32 78.3858 50.9763 71.8176 57.8707Z" fill="#22D39E"/>
<path d="M71.8176 57.8707V100.466C81.5692 91.7215 89.6121 90.255 107.557 92.443V50.4312C86.1567 49.32 78.3858 50.9763 71.8176 57.8707Z" fill="url(#paint1_angular)"/>
<rect x="46.7272" y="108.239" width="2.04224" height="25.9656" transform="rotate(30 46.7272 108.239)" fill="#22D39E"/>
<rect x="106.827" y="9.33597" width="2.04224" height="25.9656" transform="rotate(30 106.827 9.33597)" fill="#22D39E"/>
<rect x="132.961" y="35.0099" width="2.04224" height="25.9656" transform="rotate(60 132.961 35.0099)" fill="#22D39E"/>
<rect x="133.399" y="105.759" width="2.04224" height="25.9656" transform="rotate(120 133.399 105.759)" fill="#22D39E"/>
<rect x="33.6207" y="47.4092" width="2.04224" height="25.9656" transform="rotate(120 33.6207 47.4092)" fill="#22D39E"/>
<rect x="107.429" y="131.893" width="2.04224" height="25.9656" transform="rotate(150 107.429 131.893)" fill="#22D39E"/>
<rect x="51.1216" y="30.9476" width="2.04224" height="25.9656" transform="rotate(150 51.1216 30.9476)" fill="#22D39E"/>
<rect x="32.5996" y="92.4844" width="2.04224" height="25.9656" transform="rotate(60 32.5996 92.4844)" fill="#22D39E"/>
<rect x="69.0459" width="5.54323" height="25.9656" fill="#22D39E"/>
<rect x="0.776733" y="73.8124" width="5.54323" height="25.9656" transform="rotate(-90 0.776733 73.8124)" fill="#22D39E"/>
<rect x="69.0459" y="116.116" width="5.54323" height="25.9656" fill="#22D39E"/>
<rect x="116.601" y="73.8124" width="5.54323" height="25.9656" transform="rotate(-90 116.601 73.8124)" fill="#22D39E"/>
<path d="M193.216 31.9795H186.169V27.8267H205.36V31.9795H198.313V49.8493H193.216V31.9795ZM218.044 32.6717C220.142 32.6717 221.83 33.3009 223.109 34.5593C224.41 35.8178 225.06 37.6844 225.06 40.1594V49.8493H220.152V40.9144C220.152 39.5721 219.858 38.5758 219.271 37.9256C218.684 37.2545 217.834 36.9189 216.723 36.9189C215.485 36.9189 214.5 37.3069 213.765 38.0829C213.031 38.838 212.664 39.9706 212.664 41.4807V49.8493H207.756V26.5053H212.664V34.6852C213.315 34.035 214.101 33.5421 215.024 33.2065C215.947 32.8499 216.954 32.6717 218.044 32.6717ZM246.273 41.4493C246.273 41.5122 246.242 41.9526 246.179 42.7706H233.374C233.605 43.8193 234.15 44.6478 235.01 45.256C235.87 45.8643 236.94 46.1684 238.219 46.1684C239.1 46.1684 239.876 46.0426 240.547 45.7909C241.239 45.5182 241.879 45.0987 242.466 44.5324L245.078 47.3639C243.484 49.1887 241.155 50.101 238.093 50.101C236.185 50.101 234.496 49.734 233.028 48.9999C231.56 48.2448 230.427 47.2066 229.63 45.8853C228.833 44.5639 228.435 43.0643 228.435 41.3863C228.435 39.7294 228.823 38.2402 229.599 36.9189C230.396 35.5766 231.476 34.5383 232.839 33.8042C234.223 33.0492 235.765 32.6717 237.464 32.6717C239.121 32.6717 240.621 33.0282 241.963 33.7413C243.305 34.4544 244.354 35.4822 245.109 36.8245C245.885 38.1459 246.273 39.6875 246.273 41.4493ZM237.495 36.384C236.384 36.384 235.45 36.6987 234.695 37.3279C233.94 37.9571 233.479 38.817 233.311 39.9077H241.648C241.48 38.838 241.019 37.9886 240.264 37.3593C239.509 36.7091 238.586 36.384 237.495 36.384ZM188.654 56.8267H198.659C201.05 56.8267 203.158 57.2881 204.983 58.2109C206.828 59.1128 208.255 60.3922 209.261 62.0492C210.289 63.7061 210.803 65.6357 210.803 67.838C210.803 70.0403 210.289 71.9699 209.261 73.6268C208.255 75.2838 206.828 76.5737 204.983 77.4965C203.158 78.3984 201.05 78.8493 198.659 78.8493H188.654V56.8267ZM198.407 74.665C200.61 74.665 202.361 74.0568 203.661 72.8403C204.983 71.6028 205.643 69.9354 205.643 67.838C205.643 65.7406 204.983 64.0837 203.661 62.8672C202.361 61.6297 200.61 61.011 198.407 61.011H193.751V74.665H198.407ZM221.128 61.6717C223.749 61.6717 225.763 62.3009 227.168 63.5593C228.573 64.7968 229.276 66.674 229.276 69.1908V78.8493H224.683V76.7415C223.76 78.3145 222.04 79.101 219.523 79.101C218.223 79.101 217.09 78.8808 216.125 78.4404C215.181 77.9999 214.458 77.3917 213.955 76.6156C213.451 75.8396 213.199 74.9587 213.199 73.9729C213.199 72.3998 213.787 71.1624 214.961 70.2605C216.157 69.3586 217.992 68.9077 220.467 68.9077H224.368C224.368 67.838 224.043 67.02 223.393 66.4537C222.743 65.8665 221.767 65.5728 220.467 65.5728C219.565 65.5728 218.674 65.7196 217.793 66.0133C216.933 66.2859 216.199 66.6635 215.59 67.1459L213.829 63.7166C214.752 63.0664 215.853 62.563 217.132 62.2065C218.432 61.8499 219.764 61.6717 221.128 61.6717ZM220.75 75.7976C221.589 75.7976 222.334 75.6089 222.984 75.2313C223.634 74.8328 224.095 74.256 224.368 73.501V71.7706H221.002C218.988 71.7706 217.982 72.4313 217.982 73.7527C217.982 74.3819 218.223 74.8853 218.705 75.2628C219.208 75.6194 219.89 75.7976 220.75 75.7976ZM233.718 61.9233H238.626V78.8493H233.718V61.9233ZM236.172 59.5638C235.27 59.5638 234.536 59.3016 233.97 58.7772C233.403 58.2529 233.12 57.6027 233.12 56.8267C233.12 56.0506 233.403 55.4004 233.97 54.8761C234.536 54.3517 235.27 54.0896 236.172 54.0896C237.074 54.0896 237.808 54.3412 238.374 54.8446C238.94 55.348 239.224 55.9772 239.224 56.7323C239.224 57.5503 238.94 58.2319 238.374 58.7772C237.808 59.3016 237.074 59.5638 236.172 59.5638ZM243.181 55.5053H248.089V78.8493H243.181V55.5053ZM269.444 61.9233L261.799 79.8876C261.023 81.8381 260.058 83.2119 258.904 84.009C257.772 84.806 256.398 85.2045 254.783 85.2045C253.902 85.2045 253.032 85.0681 252.172 84.7955C251.312 84.5228 250.609 84.1453 250.064 83.6629L251.857 80.1707C252.235 80.5063 252.665 80.7685 253.147 80.9572C253.65 81.146 254.143 81.2404 254.626 81.2404C255.297 81.2404 255.842 81.0726 256.262 80.737C256.681 80.4224 257.059 79.8876 257.394 79.1325L257.457 78.9752L250.127 61.9233H255.192L259.943 73.4066L264.725 61.9233H269.444ZM195.891 108.227C194.15 108.227 192.461 107.996 190.825 107.535C189.21 107.052 187.91 106.434 186.924 105.679L188.654 101.84C189.598 102.532 190.72 103.088 192.021 103.508C193.321 103.927 194.622 104.137 195.922 104.137C197.369 104.137 198.439 103.927 199.131 103.508C199.823 103.067 200.169 102.49 200.169 101.777C200.169 101.253 199.959 100.823 199.54 100.487C199.141 100.131 198.617 99.8478 197.967 99.638C197.338 99.4283 196.478 99.1976 195.387 98.9459C193.709 98.5474 192.335 98.1489 191.266 97.7504C190.196 97.3519 189.273 96.7122 188.497 95.8313C187.742 94.9503 187.365 93.7758 187.365 92.3076C187.365 91.0282 187.711 89.8746 188.403 88.8469C189.095 87.7982 190.133 86.9697 191.517 86.3615C192.923 85.7533 194.632 85.4491 196.646 85.4491C198.051 85.4491 199.425 85.6169 200.767 85.9525C202.109 86.2881 203.284 86.7705 204.291 87.3997L202.718 91.2694C200.683 90.1158 198.649 89.5391 196.614 89.5391C195.188 89.5391 194.129 89.7698 193.437 90.2312C192.765 90.6926 192.43 91.3009 192.43 92.0559C192.43 92.811 192.818 93.3773 193.594 93.7548C194.391 94.1114 195.597 94.4679 197.212 94.8245C198.89 95.223 200.264 95.6215 201.333 96.02C202.403 96.4185 203.315 97.0477 204.07 97.9077C204.846 98.7676 205.234 99.9317 205.234 101.4C205.234 102.658 204.878 103.812 204.165 104.861C203.473 105.888 202.424 106.706 201.019 107.315C199.613 107.923 197.904 108.227 195.891 108.227ZM216.551 108.101C214.747 108.101 213.122 107.734 211.674 107C210.248 106.245 209.126 105.207 208.308 103.885C207.511 102.564 207.112 101.064 207.112 99.3863C207.112 97.7084 207.511 96.2088 208.308 94.8874C209.126 93.5661 210.248 92.5383 211.674 91.8042C213.122 91.0492 214.747 90.6717 216.551 90.6717C218.334 90.6717 219.886 91.0492 221.207 91.8042C222.549 92.5383 223.525 93.5975 224.133 94.9818L220.326 97.0268C219.445 95.4747 218.176 94.6987 216.519 94.6987C215.24 94.6987 214.181 95.1181 213.342 95.9571C212.503 96.7961 212.083 97.9391 212.083 99.3863C212.083 100.834 212.503 101.977 213.342 102.816C214.181 103.655 215.24 104.074 216.519 104.074C218.197 104.074 219.466 103.298 220.326 101.746L224.133 103.822C223.525 105.165 222.549 106.213 221.207 106.968C219.886 107.724 218.334 108.101 216.551 108.101ZM231.646 93.1571C232.234 92.3391 233.02 91.7204 234.006 91.3009C235.013 90.8814 236.166 90.6717 237.467 90.6717V95.202C236.921 95.1601 236.554 95.1391 236.366 95.1391C234.96 95.1391 233.859 95.5376 233.062 96.3346C232.265 97.1107 231.867 98.2852 231.867 99.8583V107.849H226.959V90.9233H231.646V93.1571ZM240.385 90.9233H245.293V107.849H240.385V90.9233ZM242.839 88.5638C241.937 88.5638 241.203 88.3016 240.637 87.7772C240.07 87.2529 239.787 86.6027 239.787 85.8267C239.787 85.0506 240.07 84.4004 240.637 83.8761C241.203 83.3517 241.937 83.0896 242.839 83.0896C243.741 83.0896 244.475 83.3412 245.041 83.8446C245.607 84.348 245.891 84.9772 245.891 85.7323C245.891 86.5503 245.607 87.2319 245.041 87.7772C244.475 88.3016 243.741 88.5638 242.839 88.5638ZM259.852 90.6717C261.425 90.6717 262.852 91.0387 264.131 91.7728C265.431 92.4859 266.449 93.5031 267.183 94.8245C267.917 96.1249 268.284 97.6455 268.284 99.3863C268.284 101.127 267.917 102.658 267.183 103.98C266.449 105.28 265.431 106.297 264.131 107.031C262.852 107.744 261.425 108.101 259.852 108.101C257.692 108.101 255.993 107.419 254.756 106.056V113.953H249.848V90.9233H254.535V92.8739C255.752 91.4057 257.524 90.6717 259.852 90.6717ZM259.003 104.074C260.261 104.074 261.289 103.655 262.086 102.816C262.904 101.956 263.313 100.813 263.313 99.3863C263.313 97.9601 262.904 96.8275 262.086 95.9886C261.289 95.1286 260.261 94.6987 259.003 94.6987C257.745 94.6987 256.706 95.1286 255.888 95.9886C255.091 96.8275 254.693 97.9601 254.693 99.3863C254.693 100.813 255.091 101.956 255.888 102.816C256.706 103.655 257.745 104.074 259.003 104.074ZM282.486 107.031C282.004 107.388 281.406 107.661 280.693 107.849C280.001 108.017 279.267 108.101 278.491 108.101C276.477 108.101 274.915 107.587 273.803 106.559C272.712 105.532 272.167 104.022 272.167 102.029V95.0762H269.556V91.3009H272.167V87.1795H277.075V91.3009H281.291V95.0762H277.075V101.966C277.075 102.679 277.253 103.235 277.61 103.634C277.987 104.011 278.512 104.2 279.183 104.2C279.959 104.2 280.62 103.99 281.165 103.571L282.486 107.031ZM302.293 90.9233V107.849H297.637V105.836C296.987 106.57 296.211 107.136 295.309 107.535C294.407 107.912 293.432 108.101 292.383 108.101C290.16 108.101 288.398 107.461 287.098 106.182C285.797 104.903 285.147 103.004 285.147 100.487V90.9233H290.055V99.7639C290.055 102.49 291.198 103.854 293.484 103.854C294.659 103.854 295.603 103.476 296.316 102.721C297.029 101.945 297.385 100.802 297.385 99.292V90.9233H302.293ZM311.528 93.1571C312.115 92.3391 312.902 91.7204 313.887 91.3009C314.894 90.8814 316.048 90.6717 317.348 90.6717V95.202C316.803 95.1601 316.436 95.1391 316.247 95.1391C314.842 95.1391 313.741 95.5376 312.944 96.3346C312.147 97.1107 311.748 98.2852 311.748 99.8583V107.849H306.84V90.9233H311.528V93.1571ZM336.693 99.4493C336.693 99.5122 336.661 99.9526 336.598 100.771H323.794C324.024 101.819 324.57 102.648 325.43 103.256C326.29 103.864 327.359 104.168 328.639 104.168C329.52 104.168 330.296 104.043 330.967 103.791C331.659 103.518 332.299 103.099 332.886 102.532L335.497 105.364C333.903 107.189 331.575 108.101 328.513 108.101C326.604 108.101 324.916 107.734 323.448 107C321.979 106.245 320.847 105.207 320.05 103.885C319.253 102.564 318.854 101.064 318.854 99.3863C318.854 97.7294 319.242 96.2402 320.018 94.9189C320.815 93.5766 321.895 92.5383 323.259 91.8042C324.643 91.0492 326.185 90.6717 327.884 90.6717C329.541 90.6717 331.04 91.0282 332.382 91.7413C333.725 92.4544 334.774 93.4822 335.529 94.8245C336.305 96.1459 336.693 97.6875 336.693 99.4493ZM327.915 94.384C326.803 94.384 325.87 94.6987 325.115 95.3279C324.36 95.9571 323.898 96.817 323.731 97.9077H332.068C331.9 96.838 331.439 95.9886 330.684 95.3593C329.929 94.7091 329.006 94.384 327.915 94.384Z" fill="#67249B"/>
<defs>
<radialGradient id="paint0_angular" cx="0" cy="0" r="1" gradientUnits="userSpaceOnUse" gradientTransform="translate(71.6717 57.2621) rotate(89.8065) scale(43.2042 61.3318)">
<stop stop-color="#33CD9F"/>
<stop offset="1" stop-color="white" stop-opacity="0"/>
</radialGradient>
<radialGradient id="paint1_angular" cx="0" cy="0" r="1" gradientUnits="userSpaceOnUse" gradientTransform="translate(71.6717 57.2621) rotate(89.8065) scale(43.2042 61.3318)">
<stop stop-color="#33CD9F"/>
<stop offset="1" stop-color="white" stop-opacity="0"/>
</radialGradient>
</defs>
</svg>
